# AST/ASF file generated using VICON BodyLanguage
# -----------------------------------------------
:version 1.10
:name VICON
:units
  mass 1.0
  length 0.45
  angle deg
:documentation
   .ast/.asf automatically generated from VICON data using
   VICON BodyBuilder and BodyLanguage model FoxedUp or BRILLIANT.MOD
:root
   order TX TY TZ RX RY RZ
   axis XYZ
   position 0 0 0  
   orientation 0 0 0 
:bonedata
  begin
     id 1 
     name lhipjoint
     direction 0.440178 -0.822639 0.359871 
     length 2.53113 
     axis 0 0 0  XYZ
  end
  begin
     id 2 
     name lfemur
     direction 0.34202 -0.939693 0  
     length 7.88132  
     axis 0 0 20  XYZ
    dof rx ry rz
    limits (-160.0 20.0)
           (-70.0 70.0)
           (-60.0 70.0)
  end
  begin
     id 3 
     name ltibia
     direction 0.34202 -0.939693 0   
     length 8.43783   
     axis 0 0 20   XYZ
    dof rx
    limits (-10.0 170.0)
  end
  begin
     id 4 
     name lfoot
     direction 0.0886351 -0.243523 0.965837   
     length 2.63414   
     axis -90 7.62852e-016 20   XYZ
    dof rx rz
    limits (-45.0 90.0)
           (-70.0 20.0)
  end
  begin
     id 5 
     name ltoes
     direction 1.53703e-011 -4.21717e-011 1   
     length 1.31427   
     axis -90 7.62852e-016 20   XYZ
    dof rx
    limits (-90.0 20.0)
  end
  begin
     id 6 
     name rhipjoint
     direction -0.399779 -0.839773 0.367367   
     length 2.47948  
     axis 0 0 0  XYZ 
  end
  begin
     id 7 
     name rfemur
     direction -0.34202 -0.939693 0   
     length 7.74806   
     axis 0 0 -20   XYZ
    dof rx ry rz
    limits (-160.0 20.0)
           (-70.0 70.0)
           (-70.0 60.0)
  end
  begin
     id 8 
     name rtibia
     direction -0.34202 -0.939693 0   
     length 8.74432   
     axis 0 0 -20   XYZ
    dof rx
    limits (-10.0 170.0)
 end
 begin
     id 9 
     name rfoot
     direction -0.108514 -0.298139 0.948334   
     length 2.66102  
     axis -90 -7.62852e-016 -20   XYZ
    dof rx rz
    limits (-45.0 90.0)
           (-20.0 70.0)
  end
  begin
     id 10 
     name rtoes
     direction -1.53392e-011 -4.22077e-011 1   
     length 1.31983   
     axis -90 -7.62852e-016 -20   XYZ
    dof rx
    limits (-90.0 20.0)
  end
  begin
     id 11 
     name lowerback
     direction 0.0113257 0.999866 0.0118602   
     length 2.58694   
     axis 0 0 0   XYZ
    dof rx ry rz
    limits (-20.0 45.0)
           (-30.0 30.0)
           (-30.0 30.0)
  end
  begin
     id 12 
     name upperback
     direction -0.0164747 0.995193 -0.0965375   
     length 2.52368   
     axis 0 0 0   XYZ
    dof rx ry rz
    limits (-20.0 45.0)
           (-30.0 30.0)
           (-30.0 30.0)
  end
  begin
     id 13 
     name thorax
     direction -0.0194301 0.99433 -0.104552   
     length 2.56099   
     axis 0 0 0   XYZ
    dof rx ry rz
    limits (-20.0 45.0)
           (-30.0 30.0)
           (-30.0 30.0)
  end
  begin
     id 14 
     name lowerneck
     direction 0.0148543 0.995587 -0.092657   
     length 1.71582   
     axis 0 0 0   XYZ
    dof rx ry rz
    limits (-20.0 45.0)
           (-30.0 30.0)
           (-30.0 30.0)
  end
  begin
     id 15 
     name upperneck
     direction -0.0135467 0.993656 -0.111639   
     length 1.68937   
     axis 0 0 0   XYZ
    dof rx ry rz
    limits (-20.0 45.0)
           (-30.0 30.0)
           (-30.0 30.0)
  end
  begin
     id 16
     name head
     direction -0.00615349 0.999547 -0.029448  
     length 1.7462  
     axis 0 0 0   XYZ
    dof rx ry rz
    limits (-20.0 45.0)
           (-30.0 30.0)
           (-30.0 30.0)
  end
  begin
     id 17 
     name lclavicle
     direction 0.988267 0.149885 0.0293713  
     length 4.47222  
     axis 0 0 0   XYZ
    dof ry rz
    limits (-20.0 10.0)
           (0.0 20.0)
  end
  begin
     id 18 
     name lhumerus
     direction 1 -4.48986e-011 -1.14833e-027   
     length 5.37148   
     axis 180 -30 -90   XYZ
    dof rx ry rz
    limits (-60.0 90.0)
           (-90.0 90.0)
           (-90.0 90.0)
  end
  begin
     id 19
     name lradius
     direction 0.999998 0.00170963 -0.000987055   
     length 3.94212   
     axis 180 -30 -90   XYZ
    dof rx
    limits (-10.0 170.0)
  end
  begin
     id 20
     name lwrist
     direction 0.999998 7.53149e-005 -0.00194706   
     length 1.97106   
     axis 4.65056e-015 90 90   XYZ
    dof ry
    limits (-180.0 0.0)
 end
  begin
     id 21 
     name lhand
     direction 1 -4.48973e-011 -1.31746e-026   
     length 1.17917   
     axis 8.4065e-015 90 90   XYZ
    dof rx rz
    limits (-90.0 90.0)
           (-45.0 45.0)
  end
  begin
     id 22 
     name lfingers
     direction 1 -4.49107e-011 -2.63492e-026   
     length 0.950679   
     axis 1.6813e-014 90 90   XYZ
    dof rx
    limits (0.0 90.0)
  end
  begin
     id 23
     name lthumb
     direction 0.707107 -6.35048e-011 0.707107   
     length 1.36499   
     axis -90 45 2.85299e-015   XYZ
    dof rx rz
    limits (-45.0 45.0)
           (-45.0 45.0)
  end
  begin
     id 24 
     name rclavicle
     direction -0.996699 0.0642895 -0.0495725   
     length 4.62611  
     axis 0 0 0   XYZ 
    dof ry rz
    limits (-10.0 20.0)
           (-20.0 0.0)
  end
  begin
     id 25 
     name rhumerus
     direction -1 -4.48919e-011 -2.41059e-027  
     length 5.4981   
     axis 180 30 90   XYZ
    dof rx ry rz
    limits (-90.0 60.0)
           (-90.0 90.0)
           (-90.0 90.0)
  end
  begin
     id 26 
     name rradius
     direction -0.999999 0.00118101 -0.000681858   
     length 3.48381   
     axis 180 30 90   XYZ
    dof rx
    limits (-10.0 170.0)
  end
  begin
     id 27 
     name rwrist
     direction -0.999999 0.000321823 -0.00132288   
     length 1.7419   
     axis 4.65056e-015 -90 -90   XYZ
    dof ry
    limits (-180.0 0.0)
  end
  begin
     id 28
     name rhand
     direction -1 -4.49022e-011 -1.31746e-026   
     length 1.34932   
     axis 8.4065e-015 -90 -90   XYZ
    dof rx rz
    limits (-90.0 90.0)
           (-45.0 45.0)
  end
  begin
     id 29
     name rfingers
     direction -1 -4.49178e-011 -2.63492e-026   
     length 1.08785   
     axis 1.6813e-014 -90 -90   XYZ
    dof rx
    limits (0.0 90.0)
  end
  begin
     id 30
     name rthumb
     direction -0.707107 -6.34713e-011 0.707107   
     length 1.56195   
     axis -90 -45 -2.85299e-015   XYZ
    dof rx rz
    limits (-45.0 45.0)
           (-45.0 45.0)
  end
:hierarchy
  begin
    root lhipjoint rhipjoint lowerback
    lhipjoint lfemur
    lfemur ltibia
    ltibia lfoot
    lfoot ltoes
    rhipjoint rfemur
    rfemur rtibia
    rtibia rfoot
    rfoot rtoes
    lowerback upperback
    upperback thorax
    thorax lowerneck lclavicle rclavicle
    lowerneck upperneck
    upperneck head
    lclavicle lhumerus
    lhumerus lradius
    lradius lwrist
    lwrist lhand lthumb
    lhand lfingers
    rclavicle rhumerus
    rhumerus rradius
    rradius rwrist
    rwrist rhand rthumb
    rhand rfingers
  end

#!OML:ASF X:\für Bonn\!DataBase\2005_08_10_Bjorn_Final\c3d\bjorn.ASF
:FULLY-SPECIFIED
:DEGREES
1
root -23.1462 19.0464 -29.2289 -175.349 -185.501 -178.635
lowerback -6.05471 2.90966 -2.81291
upperback 8.00995 4.76705 -4.39505
thorax 12.2498 2.29729 -2.41945
lowerneck -1.40943 2.12593 0.930146
upperneck 15.2285 2.94486 -0.640121
head 4.82076 1.46757 -0.216145
rclavicle -3.18055e-015 3.18055e-015
rhumerus -35.748 -3.8281 -97.432
rradius 56.2368
rwrist -3.92483
rhand -14.3922 12.6136
rfingers 7.12502
rthumb 11.7509 -17.0368
lclavicle -3.18055e-015 3.18055e-015
lhumerus -36.4687 -11.0164 86.252
lradius 54.0469
lwrist -18.1057
lhand -19.1192 -9.23328
lfingers 7.12502
lthumb 7.19011 20.6246
rfemur -9.88928 -15.8332 17.5877
rtibia 33.2857
rfoot -26.343 1.63636
rtoes -16.1347
lfemur -14.1451 9.91173 -22.1226
ltibia 35.1711
lfoot -19.0811 -8.67419
ltoes -0.948584
2
root -23.1393 19.0426 -29.1979 -175.262 -185.419 -178.676
lowerback -6.12396 2.96777 -2.9025
upperback 7.98703 4.86814 -4.47671
thorax 12.2714 2.34203 -2.43898
lowerneck -1.40476 2.02774 0.855708
upperneck 15.2881 2.79133 -0.444504
head 4.83315 1.39979 -0.150325
rclavicle 6.08281e-014 -4.92986e-014
rhumerus -35.7849 -3.73326 -97.5452
rradius 56.1775
rwrist -3.88897
rhand -14.6907 12.9034
rfingers 7.12502
rthumb 11.4631 -16.7632
lclavicle 6.08281e-014 -4.92986e-014
lhumerus -36.645 -11.0227 86.3766
lradius 53.9904
lwrist -18.0945
lhand -19.2337 -9.62287
lfingers 7.12502
lthumb 7.07959 20.2387
rfemur -9.88237 -15.792 17.6172
rtibia 33.2621
rfoot -26.4094 1.65119
rtoes -16.322
lfemur -14.1391 10.0159 -22.0878
ltibia 35.1957
lfoot -19.2035 -8.76683
ltoes -0.803393
3
root -23.1328 19.0379 -29.1667 -175.173 -185.321 -178.694
lowerback -6.18435 3.0273 -3.01262
upperback 7.96198 4.97445 -4.57165
thorax 12.285 2.38831 -2.46107
lowerneck -1.41171 1.92904 0.817992
upperneck 15.347 2.63934 -0.284159
head 4.84865 1.33276 -0.101209
rclavicle -5.96354e-015 2.8625e-014
rhumerus -35.8174 -3.59029 -97.6632
rradius 56.1211
rwrist -3.87075
rhand -15.0145 13.2333
rfingers 7.12502
rthumb 11.1508 -16.4504
lclavicle -5.96354e-015 2.8625e-014
lhumerus -36.8155 -11.0487 86.5035
lradius 53.9214
lwrist -18.2369
lhand -19.3709 -10.0942
lfingers 7.12502
lthumb 6.94714 19.7718
rfemur -9.87215 -15.718 17.6241
rtibia 33.2335
rfoot -26.4622 1.64552
rtoes -16.5113
lfemur -14.1352 10.1483 -22.078
ltibia 35.2173
lfoot -19.2983 -8.85434
ltoes -0.663476
4
root -23.1267 19.0335 -29.1348 -175.074 -185.249 -178.735
lowerback -6.27181 3.07947 -3.11403
upperback 7.96452 5.07242 -4.65256
thorax 12.3464 2.43 -2.47271
lowerneck -1.50335 1.83679 0.762572
upperneck 15.4348 2.49146 -0.088037
head 4.88696 1.26868 -0.0368413
rclavicle -5.84427e-014 6.67916e-014
rhumerus -35.8103 -3.47642 -97.7749
rradius 56.0982
rwrist -3.84168
rhand -15.3401 13.4923
rfingers 7.12502
rthumb 10.8367 -16.2081
lclavicle -5.84427e-014 6.67916e-014
lhumerus -36.9146 -11.1699 86.6442
lradius 53.8759
lwrist -18.359
lhand -19.5445 -10.642
lfingers 7.12502
lthumb 6.77956 19.2295
rfemur -9.87012 -15.7148 17.6525
rtibia 33.2129
rfoot -26.5006 1.64996
rtoes -16.8534
lfemur -14.1407 10.3138 -22.038
ltibia 35.2378
lfoot -19.39 -9.0193
ltoes -0.537378
5
root -23.1191 19.0294 -29.1022 -174.97 -185.182 -178.735
lowerback -6.36338 3.10607 -3.27079
upperback 7.96513 5.14059 -4.71497
thorax 12.4 2.45109 -2.43815
lowerneck -1.54879 1.7587 0.670835
upperneck 15.4894 2.37029 0.0690481
head 4.9078 1.21355 0.0219672
rclavicle 1.70955e-014 -3.18055e-015
rhumerus -35.8306 -3.2476 -97.8529
rradius 56.0715
rwrist -3.75009
rhand -15.6268 13.6743
rfingers 7.12502
rthumb 10.5601 -16.0404
lclavicle 1.70955e-014 -3.18055e-015
lhumerus -37.063 -11.2807 86.8636
lradius 53.8337
lwrist -18.6512
lhand -19.897 -11.1875
lfingers 7.12502
lthumb 6.43922 18.6946
rfemur -9.86582 -15.6903 17.6339
rtibia 33.197
rfoot -26.5808 1.68065
rtoes -16.9609
lfemur -14.1426 10.3932 -22.0497
ltibia 35.2503
lfoot -19.4729 -9.1397
ltoes -0.151745
6
root -23.1117 19.023 -29.0697 -174.898 -185.106 -178.737
lowerback -6.40743 3.14128 -3.41434
upperback 7.97728 5.21752 -4.78463
thorax 12.4399 2.47841 -2.41965
lowerneck -1.62031 1.67351 0.580628
upperneck 15.544 2.23547 0.252258
head 4.93297 1.15342 0.088201
rclavicle 8.90555e-014 -1.59028e-015
rhumerus -35.8326 -3.0733 -97.9306
rradius 56.0457
rwrist -3.70662
rhand -15.8582 13.8081
rfingers 7.12502
rthumb 10.337 -15.9179
lclavicle 8.90555e-014 -1.59028e-015
lhumerus -37.2054 -11.5181 87.0971
lradius 53.8005
lwrist -19.0069
lhand -20.3977 -11.6864
lfingers 7.12502
lthumb 5.95591 18.2099
rfemur -9.82558 -15.6539 17.6066
rtibia 33.1834
rfoot -26.6863 1.67871
rtoes -17.151
lfemur -14.1054 10.5504 -22.0521
ltibia 35.2675
lfoot -19.5829 -9.28307
ltoes 0.0487787
7
root -23.1043 19.0193 -29.0365 -174.794 -185.02 -178.738
lowerback -6.48898 3.17044 -3.5828
upperback 7.98938 5.28939 -4.82971
thorax 12.4974 2.49888 -2.35944
lowerneck -1.69176 1.59986 0.403427
upperneck 15.5813 2.11482 0.48564
head 4.95165 1.09837 0.184854
rclavicle -5.1684e-014 1.11319e-013
rhumerus -35.8392 -2.89259 -97.951
rradius 56.0372
rwrist -3.65001
rhand -16.0411 13.9501
rfingers 7.12502
rthumb 10.1605 -15.7846
lclavicle -5.1684e-014 1.11319e-013
lhumerus -37.3238 -11.7738 87.3779
lradius 53.7342
lwrist -19.4896
lhand -20.94 -12.0551
lfingers 7.12502
lthumb 5.43225 17.8553
rfemur -9.82486 -15.6075 17.5883
rtibia 33.1784
rfoot -26.776 1.68756
rtoes -17.274
lfemur -14.1004 10.6466 -22.0627
ltibia 35.2759
lfoot -19.6738 -9.37845
ltoes 0.275273
8
root -23.0971 19.0135 -29.004 -174.711 -184.964 -178.738
lowerback -6.54309 3.19501 -3.74951
upperback 8.01632 5.35498 -4.87938
thorax 12.5558 2.51689 -2.30766
lowerneck -1.77413 1.51897 0.292534
upperneck 15.5916 1.98545 0.678474
head 4.96547 1.04041 0.257514
rclavicle 1.51076e-014 -3.18055e-014
rhumerus -35.8252 -2.71398 -97.9878
rradius 56.0358
rwrist -3.66749
rhand -16.1995 14.0973
rfingers 7.12502
rthumb 10.0077 -15.6448
lclavicle 1.51076e-014 -3.18055e-014
lhumerus -37.4142 -12.0543 87.6513
lradius 53.6541
lwrist -19.9046
lhand -21.3795 -12.3861
lfingers 7.12502
lthumb 5.00791 17.5347
rfemur -9.79743 -15.6561 17.5583
rtibia 33.1824
rfoot -26.8621 1.72156
rtoes -17.5529
lfemur -14.0706 10.768 -22.0631
ltibia 35.2834
lfoot -19.7654 -9.52222
ltoes 0.507752
9
root -23.0892 19.0084 -28.9705 -174.597 -184.899 -178.738
lowerback -6.61269 3.21932 -3.8942
upperback 8.00638 5.41792 -4.94711
thorax 12.5846 2.53701 -2.28754
lowerneck -1.80057 1.44354 0.213538
upperneck 15.6263 1.86105 0.876737
head 4.97803 0.987151 0.326441
rclavicle -1.19271e-015 5.08889e-014
rhumerus -35.8732 -2.60507 -98.0346
rradius 56.0358
rwrist -3.62903
rhand -16.3352 14.2675
rfingers 7.12502
rthumb 9.87674 -15.4808
lclavicle -1.19271e-015 5.08889e-014
lhumerus -37.528 -12.3854 87.9024
lradius 53.6253
lwrist -20.1284
lhand -21.6653 -12.5915
lfingers 7.12502
lthumb 4.73197 17.3357
rfemur -9.8144 -15.6562 17.5432
rtibia 33.1951
rfoot -26.9748 1.72261
rtoes -17.8627
lfemur -14.076 10.9236 -22.0757
ltibia 35.2851
lfoot -19.8554 -9.6202
ltoes 0.49356
10
root -23.0819 19.0047 -28.9363 -174.493 -184.835 -178.739
lowerback -6.69428 3.22925 -4.05912
upperback 8.03216 5.46555 -4.99158
thorax 12.6576 2.54568 -2.2328
lowerneck -1.89263 1.37076 0.0711442
upperneck 15.6269 1.74126 1.0939
head 4.99067 0.933641 0.412264
rclavicle -7.03698e-014 5.88403e-014
rhumerus -35.8536 -2.42418 -98.056
rradius 55.9849
rwrist -3.62058
rhand -16.4605 14.5208
rfingers 7.12502
rthumb 9.7559 -15.2332
lclavicle -7.03698e-014 5.88403e-014
lhumerus -37.5535 -12.6922 88.1594
lradius 53.5565
lwrist -20.2168
lhand -21.9589 -12.8377
lfingers 7.12502
lthumb 4.44842 17.0956
rfemur -9.82388 -15.7399 17.5187
rtibia 33.2182
rfoot -27.0792 1.73677
rtoes -18.2975
lfemur -14.0653 11.0524 -22.0812
ltibia 35.2838
lfoot -19.9519 -9.76827
ltoes 0.84325
11
root -23.0747 19 -28.9018 -174.399 -184.779 -178.737
lowerback -6.73814 3.24741 -4.22545
upperback 8.03079 5.52011 -5.04326
thorax 12.6761 2.55887 -2.18591
lowerneck -1.93114 1.29527 -0.00817001
upperneck 15.6684 1.6193 1.27306
head 5.00821 0.880594 0.475585
rclavicle 3.33958e-014 3.65764e-014
rhumerus -35.9064 -2.2991 -98.0774
rradius 55.9361
rwrist -3.57186
rhand -16.6277 14.8128
rfingers 7.12502
rthumb 9.59458 -14.9487
lclavicle 3.33958e-014 3.65764e-014
lhumerus -37.6121 -13.0315 88.4404
lradius 53.466
lwrist -20.2555
lhand -22.3338 -12.9858
lfingers 7.12502
lthumb 4.08645 16.9547
rfemur -9.82346 -15.8199 17.4855
rtibia 33.251
rfoot -27.1741 1.79588
rtoes -18.4419
lfemur -14.0339 11.1544 -22.0853
ltibia 35.2779
lfoot -20.0683 -9.87365
ltoes 0.868407
